# xmcd
# 
# Track frame offsets:
#     150
#     18986
#     34434
#     48930
#     65670
#     82324
#     98393
#     113350
#     129917
#     148226
# 
# Disc length: 2185
# 
# Revision: 0
# Processed by: cddbd v1.5.2PL0 Copyright (c) Steve Scherf et al.
# Submitted via: fre:ac v1.0.31
# 
DISCID=8208870a
DTITLE=Mikaela Davis - Delivery
DYEAR=2018
DGENRE=Folk
TTITLE0=Delivery
TTITLE1=Get Gone
TTITLE2=A Letter That I'll Never Send
TTITLE3=In My Groove
TTITLE4=Emily (ft. The Staves)
TTITLE5=Do You Wanne Be Mine?
TTITLE6=Little Bird
TTITLE7=Other Lover
TTITLE8=All I Do Is Disappear
TTITLE9=Pure Divine Love (ft. The Staves)
EXTD=
EXTT0=
EXTT1=
EXTT2=
EXTT3=
EXTT4=
EXTT5=
EXTT6=
EXTT7=
EXTT8=
EXTT9=
PLAYORDER=
